<svg width="47" height="49" viewBox="0 0 47 49" fill="none" xmlns="http://www.w3.org/2000/svg">
<g filter="url(#filter0_d_157_36)">
<path d="M18.9176 15.8571C18.9176 13.1973 20.9729 11.0328 23.5 11.0328C26.0216 11.0328 28.0751 13.1973 28.0751 15.8571C28.0751 18.5188 26.0234 20.6853 23.5 20.6853C20.9748 20.6853 18.9176 18.5188 18.9176 15.8571ZM30.7187 22.448H28.8613C27.4128 23.7604 25.5535 24.5853 23.5 24.5853C21.4428 24.5853 19.5817 23.7624 18.1332 22.448H16.2776C15.3101 22.448 14.5219 23.2788 14.5219 24.3006V28.1089C14.5219 29.1327 15.3101 29.9653 16.2776 29.9653H30.7206C31.69 29.9653 32.4799 29.1327 32.4799 28.1089V24.3006C32.4799 23.2788 31.69 22.448 30.7187 22.448ZM42 8.8V32.2C42 36.5017 38.6811 40 34.6 40H12.4C8.3189 40 5 36.5017 5 32.2V8.8C5 4.4983 8.3189 1 12.4 1H34.6C38.6811 1 42 4.4983 42 8.8ZM36.1799 24.3006C36.1799 21.3424 34.0413 18.9264 31.3125 18.6105C31.5882 17.7408 31.775 16.8243 31.775 15.8571C31.775 11.0464 28.0621 7.13275 23.5 7.13275C18.9324 7.13275 15.2175 11.0464 15.2175 15.8571C15.2175 16.8262 15.4044 17.7407 15.68 18.6124C12.955 18.9303 10.8201 21.3444 10.8201 24.3006V28.1089C10.8201 31.2835 13.2677 33.8653 16.2758 33.8653H30.7187C33.7287 33.8653 36.1781 31.2835 36.1781 28.1089V24.3006H36.1799Z" fill="#6395E1"/>
<path d="M18.9176 15.8571C18.9176 13.1973 20.9729 11.0328 23.5 11.0328C26.0216 11.0328 28.0751 13.1973 28.0751 15.8571C28.0751 18.5188 26.0234 20.6853 23.5 20.6853C20.9748 20.6853 18.9176 18.5188 18.9176 15.8571ZM30.7187 22.448H28.8613C27.4128 23.7604 25.5535 24.5853 23.5 24.5853C21.4428 24.5853 19.5817 23.7624 18.1332 22.448H16.2776C15.3101 22.448 14.5219 23.2788 14.5219 24.3006V28.1089C14.5219 29.1327 15.3101 29.9653 16.2776 29.9653H30.7206C31.69 29.9653 32.4799 29.1327 32.4799 28.1089V24.3006C32.4799 23.2788 31.69 22.448 30.7187 22.448ZM42 8.8V32.2C42 36.5017 38.6811 40 34.6 40H12.4C8.3189 40 5 36.5017 5 32.2V8.8C5 4.4983 8.3189 1 12.4 1H34.6C38.6811 1 42 4.4983 42 8.8ZM36.1799 24.3006C36.1799 21.3424 34.0413 18.9264 31.3125 18.6105C31.5882 17.7408 31.775 16.8243 31.775 15.8571C31.775 11.0464 28.0621 7.13275 23.5 7.13275C18.9324 7.13275 15.2175 11.0464 15.2175 15.8571C15.2175 16.8262 15.4044 17.7407 15.68 18.6124C12.955 18.9303 10.8201 21.3444 10.8201 24.3006V28.1089C10.8201 31.2835 13.2677 33.8653 16.2758 33.8653H30.7187C33.7287 33.8653 36.1781 31.2835 36.1781 28.1089V24.3006H36.1799Z" stroke="black"/>
</g>
<defs>
<filter id="filter0_d_157_36" x="0.5" y="0.5" width="46" height="48" filterUnits="userSpaceOnUse" color-interpolation-filters="sRGB">
<feFlood flood-opacity="0" result="BackgroundImageFix"/>
<feColorMatrix in="SourceAlpha" type="matrix" values="0 0 0 0 0 0 0 0 0 0 0 0 0 0 0 0 0 0 127 0" result="hardAlpha"/>
<feOffset dy="4"/>
<feGaussianBlur stdDeviation="2"/>
<feComposite in2="hardAlpha" operator="out"/>
<feColorMatrix type="matrix" values="0 0 0 0 0 0 0 0 0 0 0 0 0 0 0 0 0 0 0.5 0"/>
<feBlend mode="normal" in2="BackgroundImageFix" result="effect1_dropShadow_157_36"/>
<feBlend mode="normal" in="SourceGraphic" in2="effect1_dropShadow_157_36" result="shape"/>
</filter>
</defs>
</svg>
